%TF.GenerationSoftware,KiCad,Pcbnew,8.0.4*%
%TF.CreationDate,2024-08-13T10:53:45-04:00*%
%TF.ProjectId,Bus_Breakout,4275735f-4272-4656-916b-6f75742e6b69,rev?*%
%TF.SameCoordinates,Original*%
%TF.FileFunction,Soldermask,Bot*%
%TF.FilePolarity,Negative*%
%FSLAX46Y46*%
G04 Gerber Fmt 4.6, Leading zero omitted, Abs format (unit mm)*
G04 Created by KiCad (PCBNEW 8.0.4) date 2024-08-13 10:53:45*
%MOMM*%
%LPD*%
G01*
G04 APERTURE LIST*
G04 Aperture macros list*
%AMRoundRect*
0 Rectangle with rounded corners*
0 $1 Rounding radius*
0 $2 $3 $4 $5 $6 $7 $8 $9 X,Y pos of 4 corners*
0 Add a 4 corners polygon primitive as box body*
4,1,4,$2,$3,$4,$5,$6,$7,$8,$9,$2,$3,0*
0 Add four circle primitives for the rounded corners*
1,1,$1+$1,$2,$3*
1,1,$1+$1,$4,$5*
1,1,$1+$1,$6,$7*
1,1,$1+$1,$8,$9*
0 Add four rect primitives between the rounded corners*
20,1,$1+$1,$2,$3,$4,$5,0*
20,1,$1+$1,$4,$5,$6,$7,0*
20,1,$1+$1,$6,$7,$8,$9,0*
20,1,$1+$1,$8,$9,$2,$3,0*%
G04 Aperture macros list end*
%ADD10O,3.000000X1.800000*%
%ADD11R,1.700000X1.700000*%
%ADD12O,1.700000X1.700000*%
%ADD13RoundRect,0.250000X0.600000X-0.600000X0.600000X0.600000X-0.600000X0.600000X-0.600000X-0.600000X0*%
%ADD14C,1.700000*%
G04 APERTURE END LIST*
D10*
%TO.C,J16*%
X354750200Y-220459700D03*
X354750200Y-209559700D03*
X354750200Y-218059700D03*
%TD*%
%TO.C,J34*%
X333305200Y-244589700D03*
X333305200Y-233689700D03*
X333305200Y-242189700D03*
%TD*%
%TO.C,J5*%
X237310200Y-220459700D03*
X237310200Y-209559700D03*
X237310200Y-218059700D03*
%TD*%
%TO.C,J40*%
X397240200Y-244589700D03*
X397240200Y-233689700D03*
X397240200Y-242189700D03*
%TD*%
%TO.C,J15*%
X344100200Y-220459700D03*
X344100200Y-209559700D03*
X344100200Y-218059700D03*
%TD*%
%TO.C,J35*%
X343955200Y-244589700D03*
X343955200Y-233689700D03*
X343955200Y-242189700D03*
%TD*%
%TO.C,J14*%
X333450200Y-220459700D03*
X333450200Y-209559700D03*
X333450200Y-218059700D03*
%TD*%
%TO.C,J7*%
X258610200Y-220459700D03*
X258610200Y-209559700D03*
X258610200Y-218059700D03*
%TD*%
%TO.C,J24*%
X226660200Y-244589700D03*
X226660200Y-233689700D03*
X226660200Y-242189700D03*
%TD*%
D11*
%TO.C,J42*%
X272270200Y-254654700D03*
D12*
X272270200Y-257194700D03*
X274810200Y-254654700D03*
X274810200Y-257194700D03*
X277350200Y-254654700D03*
X277350200Y-257194700D03*
X279890200Y-254654700D03*
X279890200Y-257194700D03*
X282430200Y-254654700D03*
X282430200Y-257194700D03*
X284970200Y-254654700D03*
X284970200Y-257194700D03*
X287510200Y-254654700D03*
X287510200Y-257194700D03*
X290050200Y-254654700D03*
X290050200Y-257194700D03*
X292590200Y-254654700D03*
X292590200Y-257194700D03*
X295130200Y-254654700D03*
X295130200Y-257194700D03*
X297670200Y-254654700D03*
X297670200Y-257194700D03*
X300210200Y-254654700D03*
X300210200Y-257194700D03*
X302750200Y-254654700D03*
X302750200Y-257194700D03*
X305290200Y-254654700D03*
X305290200Y-257194700D03*
X307830200Y-254654700D03*
X307830200Y-257194700D03*
X310370200Y-254654700D03*
X310370200Y-257194700D03*
X312910200Y-254654700D03*
X312910200Y-257194700D03*
X315450200Y-254654700D03*
X315450200Y-257194700D03*
X317990200Y-254654700D03*
X317990200Y-257194700D03*
X320530200Y-254654700D03*
X320530200Y-257194700D03*
%TD*%
D10*
%TO.C,J13*%
X322800200Y-220459700D03*
X322800200Y-209559700D03*
X322800200Y-218059700D03*
%TD*%
%TO.C,J29*%
X280055200Y-244589700D03*
X280055200Y-233689700D03*
X280055200Y-242189700D03*
%TD*%
%TO.C,J23*%
X216010200Y-244589700D03*
X216010200Y-233689700D03*
X216010200Y-242189700D03*
%TD*%
%TO.C,J32*%
X312005200Y-244589700D03*
X312005200Y-233689700D03*
X312005200Y-242189700D03*
%TD*%
%TO.C,J10*%
X290850200Y-220459700D03*
X290850200Y-209559700D03*
X290850200Y-218059700D03*
%TD*%
%TO.C,J2*%
X205360200Y-220459700D03*
X205360200Y-209559700D03*
X205360200Y-218059700D03*
%TD*%
%TO.C,J6*%
X247960200Y-220459700D03*
X247960200Y-209559700D03*
X247960200Y-218059700D03*
%TD*%
%TO.C,J30*%
X290705200Y-244589700D03*
X290705200Y-233689700D03*
X290705200Y-242189700D03*
%TD*%
%TO.C,J31*%
X301355200Y-244589700D03*
X301355200Y-233689700D03*
X301355200Y-242189700D03*
%TD*%
%TO.C,J25*%
X237310200Y-244589700D03*
X237310200Y-233689700D03*
X237310200Y-242189700D03*
%TD*%
%TO.C,J1*%
X194710200Y-220459700D03*
X194710200Y-209559700D03*
X194710200Y-218059700D03*
%TD*%
%TO.C,J9*%
X280055200Y-220459700D03*
X280055200Y-209559700D03*
X280055200Y-218059700D03*
%TD*%
%TO.C,J33*%
X322655200Y-244589700D03*
X322655200Y-233689700D03*
X322655200Y-242189700D03*
%TD*%
%TO.C,J3*%
X216010200Y-220459700D03*
X216010200Y-209559700D03*
X216010200Y-218059700D03*
%TD*%
%TO.C,J19*%
X386625200Y-220459700D03*
X386625200Y-209559700D03*
X386625200Y-218059700D03*
%TD*%
D11*
%TO.C,J44*%
X335790200Y-180269700D03*
D12*
X335790200Y-182809700D03*
X338330200Y-180269700D03*
X338330200Y-182809700D03*
X340870200Y-180269700D03*
X340870200Y-182809700D03*
X343410200Y-180269700D03*
X343410200Y-182809700D03*
X345950200Y-180269700D03*
X345950200Y-182809700D03*
X348490200Y-180269700D03*
X348490200Y-182809700D03*
X351030200Y-180269700D03*
X351030200Y-182809700D03*
X353570200Y-180269700D03*
X353570200Y-182809700D03*
X356110200Y-180269700D03*
X356110200Y-182809700D03*
X358650200Y-180269700D03*
X358650200Y-182809700D03*
X361190200Y-180269700D03*
X361190200Y-182809700D03*
X363730200Y-180269700D03*
X363730200Y-182809700D03*
X366270200Y-180269700D03*
X366270200Y-182809700D03*
X368810200Y-180269700D03*
X368810200Y-182809700D03*
X371350200Y-180269700D03*
X371350200Y-182809700D03*
X373890200Y-180269700D03*
X373890200Y-182809700D03*
X376430200Y-180269700D03*
X376430200Y-182809700D03*
X378970200Y-180269700D03*
X378970200Y-182809700D03*
X381510200Y-180269700D03*
X381510200Y-182809700D03*
X384050200Y-180269700D03*
X384050200Y-182809700D03*
%TD*%
D10*
%TO.C,J39*%
X386590200Y-244589700D03*
X386590200Y-233689700D03*
X386590200Y-242189700D03*
%TD*%
%TO.C,J36*%
X354605200Y-244589700D03*
X354605200Y-233689700D03*
X354605200Y-242189700D03*
%TD*%
%TO.C,J18*%
X376050200Y-220459700D03*
X376050200Y-209559700D03*
X376050200Y-218059700D03*
%TD*%
%TO.C,J8*%
X269405200Y-220459700D03*
X269405200Y-209559700D03*
X269405200Y-218059700D03*
%TD*%
%TO.C,J12*%
X312150200Y-220459700D03*
X312150200Y-209559700D03*
X312150200Y-218059700D03*
%TD*%
%TO.C,J20*%
X397275200Y-220459700D03*
X397275200Y-209559700D03*
X397275200Y-218059700D03*
%TD*%
%TO.C,J11*%
X301500200Y-220459700D03*
X301500200Y-209559700D03*
X301500200Y-218059700D03*
%TD*%
%TO.C,J38*%
X375940200Y-244589700D03*
X375940200Y-233689700D03*
X375940200Y-242189700D03*
%TD*%
D11*
%TO.C,J43*%
X208820200Y-180269700D03*
D12*
X208820200Y-182809700D03*
X211360200Y-180269700D03*
X211360200Y-182809700D03*
X213900200Y-180269700D03*
X213900200Y-182809700D03*
X216440200Y-180269700D03*
X216440200Y-182809700D03*
X218980200Y-180269700D03*
X218980200Y-182809700D03*
X221520200Y-180269700D03*
X221520200Y-182809700D03*
X224060200Y-180269700D03*
X224060200Y-182809700D03*
X226600200Y-180269700D03*
X226600200Y-182809700D03*
X229140200Y-180269700D03*
X229140200Y-182809700D03*
X231680200Y-180269700D03*
X231680200Y-182809700D03*
X234220200Y-180269700D03*
X234220200Y-182809700D03*
X236760200Y-180269700D03*
X236760200Y-182809700D03*
X239300200Y-180269700D03*
X239300200Y-182809700D03*
X241840200Y-180269700D03*
X241840200Y-182809700D03*
X244380200Y-180269700D03*
X244380200Y-182809700D03*
X246920200Y-180269700D03*
X246920200Y-182809700D03*
X249460200Y-180269700D03*
X249460200Y-182809700D03*
X252000200Y-180269700D03*
X252000200Y-182809700D03*
X254540200Y-180269700D03*
X254540200Y-182809700D03*
X257080200Y-180269700D03*
X257080200Y-182809700D03*
%TD*%
D10*
%TO.C,J27*%
X258610200Y-244589700D03*
X258610200Y-233689700D03*
X258610200Y-242189700D03*
%TD*%
D13*
%TO.C,J41*%
X272290200Y-165647200D03*
D14*
X272290200Y-163107200D03*
X274830200Y-165647200D03*
X274830200Y-163107200D03*
X277370200Y-165647200D03*
X277370200Y-163107200D03*
X279910200Y-165647200D03*
X279910200Y-163107200D03*
X282450200Y-165647200D03*
X282450200Y-163107200D03*
X284990200Y-165647200D03*
X284990200Y-163107200D03*
X287530200Y-165647200D03*
X287530200Y-163107200D03*
X290070200Y-165647200D03*
X290070200Y-163107200D03*
X292610200Y-165647200D03*
X292610200Y-163107200D03*
X295150200Y-165647200D03*
X295150200Y-163107200D03*
X297690200Y-165647200D03*
X297690200Y-163107200D03*
X300230200Y-165647200D03*
X300230200Y-163107200D03*
X302770200Y-165647200D03*
X302770200Y-163107200D03*
X305310200Y-165647200D03*
X305310200Y-163107200D03*
X307850200Y-165647200D03*
X307850200Y-163107200D03*
X310390200Y-165647200D03*
X310390200Y-163107200D03*
X312930200Y-165647200D03*
X312930200Y-163107200D03*
X315470200Y-165647200D03*
X315470200Y-163107200D03*
X318010200Y-165647200D03*
X318010200Y-163107200D03*
X320550200Y-165647200D03*
X320550200Y-163107200D03*
%TD*%
D10*
%TO.C,J28*%
X269405200Y-244589700D03*
X269405200Y-233689700D03*
X269405200Y-242189700D03*
%TD*%
%TO.C,J4*%
X226660200Y-220459700D03*
X226660200Y-209559700D03*
X226660200Y-218059700D03*
%TD*%
%TO.C,J22*%
X205360200Y-244589700D03*
X205360200Y-233689700D03*
X205360200Y-242189700D03*
%TD*%
%TO.C,J21*%
X194710200Y-244589700D03*
X194710200Y-233689700D03*
X194710200Y-242189700D03*
%TD*%
%TO.C,J37*%
X365290200Y-244589700D03*
X365290200Y-233689700D03*
X365290200Y-242189700D03*
%TD*%
%TO.C,J26*%
X247960200Y-244589700D03*
X247960200Y-233689700D03*
X247960200Y-242189700D03*
%TD*%
%TO.C,J17*%
X365400200Y-220459700D03*
X365400200Y-209559700D03*
X365400200Y-218059700D03*
%TD*%
M02*
