M48
; DRILL file {KiCad 8.0.4} date 2024-08-13T10:53:41-0400
; FORMAT={-:-/ absolute / inch / decimal}
; #@! TF.CreationDate,2024-08-13T10:53:41-04:00
; #@! TF.GenerationSoftware,Kicad,Pcbnew,8.0.4
; #@! TF.FileFunction,Plated,1,2,PTH
FMAT,2
INCH
; #@! TA.AperFunction,Plated,PTH,ViaDrill
T1C0.0157
; #@! TA.AperFunction,Plated,PTH,ComponentDrill
T2C0.0394
; #@! TA.AperFunction,Plated,PTH,ComponentDrill
T3C0.0433
%
G90
G05
T1
X8.2213Y-6.2772
X8.2213Y-7.2972
X8.3213Y-6.3172
X8.3213Y-7.3372
X8.4213Y-6.3572
X8.4213Y-7.3772
X8.5213Y-6.3972
X8.5213Y-7.4172
X8.6213Y-6.4372
X8.6213Y-7.4572
X8.7213Y-6.4772
X8.7213Y-7.4972
X8.8213Y-6.5172
X8.8213Y-7.5372
X8.9213Y-6.5572
X8.9213Y-7.5772
X9.0213Y-6.5972
X9.0213Y-7.6172
X9.1213Y-6.6372
X9.1213Y-7.6572
X9.2213Y-6.6772
X9.2213Y-7.6972
X9.2213Y-8.4372
X9.2413Y-8.2372
X9.2813Y-8.1172
X9.3213Y-6.7172
X9.3213Y-7.7372
X9.3813Y-8.0972
X9.4213Y-6.7572
X9.4213Y-7.7772
X9.5213Y-6.7972
X9.5213Y-7.8172
X9.6213Y-6.8372
X9.6213Y-7.8572
X9.7213Y-6.8772
X9.7213Y-7.8972
X9.9213Y-6.9172
X9.9213Y-7.9372
X9.9413Y-8.1372
X10.0213Y-6.9572
X10.0213Y-7.9772
X10.1213Y-6.9972
X10.1213Y-8.0172
X10.6213Y-7.2972
X10.7413Y-8.8372
X10.7613Y-6.2772
X10.7613Y-7.3372
X10.8613Y-6.3172
X10.8813Y-7.3772
X10.9013Y-8.8372
X10.9613Y-6.3572
X10.9813Y-7.4172
X11.0213Y-6.6572
X11.0813Y-7.4572
X11.1213Y-6.6972
X11.1813Y-7.4972
X11.1813Y-8.8372
X11.2213Y-6.7372
X11.2813Y-7.5372
X11.3213Y-6.7772
X11.3813Y-7.5772
X11.4213Y-6.8172
X11.4813Y-7.6172
X11.5213Y-6.8572
X11.5813Y-7.6572
X11.6213Y-6.8972
X11.6813Y-7.6972
X11.7213Y-6.9372
X11.7813Y-7.7372
X11.8201Y-6.9761
X11.8813Y-7.7772
X11.9213Y-7.0172
X11.9813Y-7.8172
X12.0213Y-7.0572
X12.0813Y-7.8572
X12.1213Y-7.0972
X12.1813Y-7.8972
X12.2213Y-7.1372
X12.3613Y-7.9372
X12.4213Y-7.1772
X12.4813Y-7.9772
X12.5213Y-7.2172
X12.5813Y-8.0172
X12.6213Y-7.2572
X12.9213Y-8.1972
X13.2201Y-6.2772
X13.2201Y-7.2972
X13.3201Y-6.3172
X13.3201Y-7.3372
X13.4201Y-6.3572
X13.4201Y-7.3772
X13.5201Y-6.3972
X13.5201Y-7.4172
X13.6201Y-6.4372
X13.6201Y-7.4572
X13.7201Y-6.4772
X13.7201Y-7.4972
X13.8201Y-6.5172
X13.8201Y-7.5372
X13.9201Y-6.5572
X13.9201Y-7.5772
X14.0201Y-6.5972
X14.0201Y-7.6172
X14.1201Y-6.6372
X14.1201Y-7.6572
X14.2201Y-6.6772
X14.2201Y-7.6972
X14.3201Y-6.7172
X14.3201Y-7.7372
X14.4201Y-6.7572
X14.4201Y-7.7772
X14.5201Y-6.7972
X14.5201Y-7.8172
X14.6201Y-6.8372
X14.6201Y-7.8572
X14.7201Y-6.8772
X14.7201Y-7.8972
X14.7504Y-8.8223
X14.8413Y-7.3572
X14.9201Y-6.9172
X14.9201Y-7.9372
X15.0201Y-6.9572
X15.0201Y-7.9772
X15.1201Y-6.9972
X15.1201Y-8.0172
X15.1613Y-6.9572
X15.1638Y-8.842
X15.2013Y-7.0172
X15.3413Y-6.9572
X15.4413Y-7.0172
T2
X8.2213Y-7.0972
X8.2213Y-7.1972
X8.3213Y-7.0972
X8.3213Y-7.1972
X8.4213Y-7.0972
X8.4213Y-7.1972
X8.5213Y-7.0972
X8.5213Y-7.1972
X8.6213Y-7.0972
X8.6213Y-7.1972
X8.7213Y-7.0972
X8.7213Y-7.1972
X8.8213Y-7.0972
X8.8213Y-7.1972
X8.9213Y-7.0972
X8.9213Y-7.1972
X9.0213Y-7.0972
X9.0213Y-7.1972
X9.1213Y-7.0972
X9.1213Y-7.1972
X9.2213Y-7.0972
X9.2213Y-7.1972
X9.3213Y-7.0972
X9.3213Y-7.1972
X9.4213Y-7.0972
X9.4213Y-7.1972
X9.5213Y-7.0972
X9.5213Y-7.1972
X9.6213Y-7.0972
X9.6213Y-7.1972
X9.7213Y-7.0972
X9.7213Y-7.1972
X9.8213Y-7.0972
X9.8213Y-7.1972
X9.9213Y-7.0972
X9.9213Y-7.1972
X10.0213Y-7.0972
X10.0213Y-7.1972
X10.1213Y-7.0972
X10.1213Y-7.1972
X10.7193Y-10.0258
X10.7193Y-10.1258
X10.7201Y-6.4215
X10.7201Y-6.5215
X10.8193Y-10.0258
X10.8193Y-10.1258
X10.8201Y-6.4215
X10.8201Y-6.5215
X10.9193Y-10.0258
X10.9193Y-10.1258
X10.9201Y-6.4215
X10.9201Y-6.5215
X11.0193Y-10.0258
X11.0193Y-10.1258
X11.0201Y-6.4215
X11.0201Y-6.5215
X11.1193Y-10.0258
X11.1193Y-10.1258
X11.1201Y-6.4215
X11.1201Y-6.5215
X11.2193Y-10.0258
X11.2193Y-10.1258
X11.2201Y-6.4215
X11.2201Y-6.5215
X11.3193Y-10.0258
X11.3193Y-10.1258
X11.3201Y-6.4215
X11.3201Y-6.5215
X11.4193Y-10.0258
X11.4193Y-10.1258
X11.4201Y-6.4215
X11.4201Y-6.5215
X11.5193Y-10.0258
X11.5193Y-10.1258
X11.5201Y-6.4215
X11.5201Y-6.5215
X11.6193Y-10.0258
X11.6193Y-10.1258
X11.6201Y-6.4215
X11.6201Y-6.5215
X11.7193Y-10.0258
X11.7193Y-10.1258
X11.7201Y-6.4215
X11.7201Y-6.5215
X11.8193Y-10.0258
X11.8193Y-10.1258
X11.8201Y-6.4215
X11.8201Y-6.5215
X11.9193Y-10.0258
X11.9193Y-10.1258
X11.9201Y-6.4215
X11.9201Y-6.5215
X12.0193Y-10.0258
X12.0193Y-10.1258
X12.0201Y-6.4215
X12.0201Y-6.5215
X12.1193Y-10.0258
X12.1193Y-10.1258
X12.1201Y-6.4215
X12.1201Y-6.5215
X12.2193Y-10.0258
X12.2193Y-10.1258
X12.2201Y-6.4215
X12.2201Y-6.5215
X12.3193Y-10.0258
X12.3193Y-10.1258
X12.3201Y-6.4215
X12.3201Y-6.5215
X12.4193Y-10.0258
X12.4193Y-10.1258
X12.4201Y-6.4215
X12.4201Y-6.5215
X12.5193Y-10.0258
X12.5193Y-10.1258
X12.5201Y-6.4215
X12.5201Y-6.5215
X12.6193Y-10.0258
X12.6193Y-10.1258
X12.6201Y-6.4215
X12.6201Y-6.5215
X13.2201Y-7.0972
X13.2201Y-7.1972
X13.3201Y-7.0972
X13.3201Y-7.1972
X13.4201Y-7.0972
X13.4201Y-7.1972
X13.5201Y-7.0972
X13.5201Y-7.1972
X13.6201Y-7.0972
X13.6201Y-7.1972
X13.7201Y-7.0972
X13.7201Y-7.1972
X13.8201Y-7.0972
X13.8201Y-7.1972
X13.9201Y-7.0972
X13.9201Y-7.1972
X14.0201Y-7.0972
X14.0201Y-7.1972
X14.1201Y-7.0972
X14.1201Y-7.1972
X14.2201Y-7.0972
X14.2201Y-7.1972
X14.3201Y-7.0972
X14.3201Y-7.1972
X14.4201Y-7.0972
X14.4201Y-7.1972
X14.5201Y-7.0972
X14.5201Y-7.1972
X14.6201Y-7.0972
X14.6201Y-7.1972
X14.7201Y-7.0972
X14.7201Y-7.1972
X14.8201Y-7.0972
X14.8201Y-7.1972
X14.9201Y-7.0972
X14.9201Y-7.1972
X15.0201Y-7.0972
X15.0201Y-7.1972
X15.1201Y-7.0972
X15.1201Y-7.1972
T3
X7.6658Y-8.2504
X7.6658Y-8.585
X7.6658Y-8.6795
X7.6658Y-9.2004
X7.6658Y-9.535
X7.6658Y-9.6295
X8.085Y-8.2504
X8.085Y-8.585
X8.085Y-8.6795
X8.085Y-9.2004
X8.085Y-9.535
X8.085Y-9.6295
X8.5043Y-8.2504
X8.5043Y-8.585
X8.5043Y-8.6795
X8.5043Y-9.2004
X8.5043Y-9.535
X8.5043Y-9.6295
X8.9236Y-8.2504
X8.9236Y-8.585
X8.9236Y-8.6795
X8.9236Y-9.2004
X8.9236Y-9.535
X8.9236Y-9.6295
X9.3429Y-8.2504
X9.3429Y-8.585
X9.3429Y-8.6795
X9.3429Y-9.2004
X9.3429Y-9.535
X9.3429Y-9.6295
X9.7622Y-8.2504
X9.7622Y-8.585
X9.7622Y-8.6795
X9.7622Y-9.2004
X9.7622Y-9.535
X9.7622Y-9.6295
X10.1815Y-8.2504
X10.1815Y-8.585
X10.1815Y-8.6795
X10.1815Y-9.2004
X10.1815Y-9.535
X10.1815Y-9.6295
X10.6065Y-8.2504
X10.6065Y-8.585
X10.6065Y-8.6795
X10.6065Y-9.2004
X10.6065Y-9.535
X10.6065Y-9.6295
X11.0258Y-8.2504
X11.0258Y-8.585
X11.0258Y-8.6795
X11.0258Y-9.2004
X11.0258Y-9.535
X11.0258Y-9.6295
X11.4451Y-9.2004
X11.4451Y-9.535
X11.4451Y-9.6295
X11.4508Y-8.2504
X11.4508Y-8.585
X11.4508Y-8.6795
X11.8644Y-9.2004
X11.8644Y-9.535
X11.8644Y-9.6295
X11.8701Y-8.2504
X11.8701Y-8.585
X11.8701Y-8.6795
X12.2837Y-9.2004
X12.2837Y-9.535
X12.2837Y-9.6295
X12.2894Y-8.2504
X12.2894Y-8.585
X12.2894Y-8.6795
X12.703Y-9.2004
X12.703Y-9.535
X12.703Y-9.6295
X12.7087Y-8.2504
X12.7087Y-8.585
X12.7087Y-8.6795
X13.1223Y-9.2004
X13.1223Y-9.535
X13.1223Y-9.6295
X13.128Y-8.2504
X13.128Y-8.585
X13.128Y-8.6795
X13.5415Y-9.2004
X13.5415Y-9.535
X13.5415Y-9.6295
X13.5473Y-8.2504
X13.5473Y-8.585
X13.5473Y-8.6795
X13.9608Y-9.2004
X13.9608Y-9.535
X13.9608Y-9.6295
X13.9665Y-8.2504
X13.9665Y-8.585
X13.9665Y-8.6795
X14.3815Y-9.2004
X14.3815Y-9.535
X14.3815Y-9.6295
X14.3858Y-8.2504
X14.3858Y-8.585
X14.3858Y-8.6795
X14.8008Y-9.2004
X14.8008Y-9.535
X14.8008Y-9.6295
X14.8051Y-8.2504
X14.8051Y-8.585
X14.8051Y-8.6795
X15.2201Y-9.2004
X15.2201Y-9.535
X15.2201Y-9.6295
X15.2215Y-8.2504
X15.2215Y-8.585
X15.2215Y-8.6795
X15.6394Y-9.2004
X15.6394Y-9.535
X15.6394Y-9.6295
X15.6408Y-8.2504
X15.6408Y-8.585
X15.6408Y-8.6795
M30
